<svg width="116" height="42" viewBox="0 0 116 42" fill="none" xmlns="http://www.w3.org/2000/svg">
<path d="M33.1579 19.1049C33.1579 28.2612 25.7352 35.6838 16.5789 35.6838C7.42265 35.6838 0 28.2612 0 19.1049C0 9.9486 15.7121 0.31543 24.8684 0.31543C34.0247 0.31543 33.1579 9.9486 33.1579 19.1049Z" fill="#08F5A7"/>
<path d="M17.375 10.375C19.225 10.375 20.8417 10.75 22.225 11.5C23.625 12.2333 24.7 13.2667 25.45 14.6C26.2 15.9333 26.575 17.4583 26.575 19.175C26.575 20.875 26.1917 22.3917 25.425 23.725C24.675 25.0583 23.6 26.1083 22.2 26.875C20.8167 27.625 19.2083 28 17.375 28H10.4V10.375H17.375ZM17 23.675C18.4333 23.675 19.5583 23.2833 20.375 22.5C21.1917 21.7167 21.6 20.6083 21.6 19.175C21.6 17.725 21.1917 16.6083 20.375 15.825C19.5583 15.025 18.4333 14.625 17 14.625H15.3V23.675H17Z" fill="black"/>
<path d="M52.1637 22.751C52.1637 23.165 52.1367 23.579 52.0827 23.993H42.0657C42.1197 24.821 42.3447 25.442 42.7407 25.856C43.1547 26.252 43.6767 26.45 44.3067 26.45C45.1887 26.45 45.8187 26.054 46.1967 25.262H51.8397C51.6057 26.306 51.1467 27.242 50.4627 28.07C49.7967 28.88 48.9507 29.519 47.9247 29.987C46.8987 30.455 45.7647 30.689 44.5227 30.689C43.0287 30.689 41.6967 30.374 40.5267 29.744C39.3747 29.114 38.4657 28.214 37.7997 27.044C37.1517 25.874 36.8277 24.497 36.8277 22.913C36.8277 21.329 37.1517 19.961 37.7997 18.809C38.4477 17.639 39.3477 16.739 40.4997 16.109C41.6697 15.479 43.0107 15.164 44.5227 15.164C46.0167 15.164 47.3397 15.47 48.4917 16.082C49.6437 16.694 50.5437 17.576 51.1917 18.728C51.8397 19.862 52.1637 21.203 52.1637 22.751ZM46.7637 21.428C46.7637 20.78 46.5477 20.276 46.1157 19.916C45.6837 19.538 45.1437 19.349 44.4957 19.349C43.8477 19.349 43.3167 19.529 42.9027 19.889C42.4887 20.231 42.2187 20.744 42.0927 21.428H46.7637ZM61.5924 25.505L64.4274 15.353H70.0704L64.8594 30.5H58.2714L53.0604 15.353H58.7034L61.5924 25.505ZM88.2905 30.5L82.3235 22.157V30.5H77.0315V11.465H82.3235V19.673L88.2365 11.465H94.3385L87.3455 20.699L94.6895 30.5H88.2905ZM99.2954 13.949C98.3594 13.949 97.6034 13.697 97.0274 13.193C96.4694 12.671 96.1904 12.023 96.1904 11.249C96.1904 10.457 96.4694 9.8 97.0274 9.278C97.6034 8.756 98.3594 8.495 99.2954 8.495C100.213 8.495 100.951 8.756 101.509 9.278C102.085 9.8 102.373 10.457 102.373 11.249C102.373 12.023 102.085 12.671 101.509 13.193C100.951 13.697 100.213 13.949 99.2954 13.949ZM101.914 15.353V30.5H96.6224V15.353H101.914ZM113.865 25.991V30.5H111.57C107.7 30.5 105.765 28.583 105.765 24.749V19.754H103.902V15.353H105.765V11.681H111.084V15.353H113.838V19.754H111.084V24.83C111.084 25.244 111.174 25.541 111.354 25.721C111.552 25.901 111.876 25.991 112.326 25.991H113.865Z" fill="#08F5A7"/>
</svg>
